# xmcd CD database file
#
# Track frame offsets:
#	150
#	6117
#	31547
#	58000
#	88620
#	106982
#	130482
#	150967
#	171715
#	183495
#	201012
#	221687
#
# Disc length: 3264 seconds
#
# Revision: 0
# Processed by: cddbd v1.5.1PL2 Copyright (c) Steve Scherf et al.
# Submitted via: CDex 1.51
#
DISCID=9d0cbe0c
DTITLE=DragonLord - Black Wings Of Destiny
DYEAR=2006
DGENRE=Black Metal
TTITLE0=The Becoming Of
TTITLE1=The Curse Of Woe
TTITLE2=Revelations
TTITLE3=Sins Of Allegiance
TTITLE4=Until The End
TTITLE5=Mark Of Damnation
TTITLE6=Blood Voyeur
TTITLE7=Fallen
TTITLE8=Black Funeral
TTITLE9=Emerald
TTITLE10=Blood Voyeur[2003 Demo Version]
TTITLE11=Mark Of Damnation[2003 Demo Version]
EXTD=YEAR: 2006
EXTT0=
EXTT1=
EXTT2=
EXTT3=
EXTT4=
EXTT5=
EXTT6=
EXTT7=
EXTT8=
EXTT9=
EXTT10=
EXTT11=
PLAYORDER=
